<svg xmlns="http://www.w3.org/2000/svg" viewBox="0 0 1500 394.8" style="enable-background:new 0 0 1500 394.8" xml:space="preserve"><path d="M188.8 309H22.7c-6.3 0-12 2.6-16.1 6.8C2.5 319.9 0 325.7 0 332v39.7c0 6.4 2.5 12.1 6.6 16.3 4.1 4.2 9.8 6.8 16.1 6.8h166.1V309zm285.2 6.8c-4.1-4.2-9.8-6.8-16.1-6.8H291.8v85.8h166.1c6.3 0 12-2.6 16.1-6.8 4.1-4.2 6.6-9.9 6.6-16.2V332c0-6.3-2.5-12-6.6-16.2zm0-154.5c-4.1-4.2-9.8-6.9-16.1-6.9H291.8v85.8h166.1c6.3 0 12-2.6 16.1-6.9 4.1-4.2 6.6-9.9 6.6-16.2v-39.7c0-6.2-2.5-11.9-6.6-16.1zm-285.2-6.8H22.7c-6.3 0-12 2.6-16.1 6.8-4.1 4.2-6.6 9.9-6.6 16.3v39.7c0 6.3 2.5 12.1 6.6 16.3 4.1 4.2 9.8 6.8 16.1 6.8h166.1v-85.9zm268.7-68.7H23.1c-6.4 0-12.2-2.6-16.4-6.8C2.6 74.8 0 69.1 0 62.7V23.1C0 16.7 2.6 11 6.7 6.8 10.9 2.6 16.7 0 23.1 0h434.4c6.4 0 12.2 2.6 16.4 6.8 4.1 4.2 6.7 9.9 6.7 16.2v39.7c0 6.3-2.6 12.1-6.7 16.2-4.2 4.3-10 6.9-16.4 6.9z" style="fill-rule:evenodd;clip-rule:evenodd;fill:#eb0028"/><path d="M1463.1 0h-26c-33.3 0-35.4 3.7-37.9 9.5l-51.5 125.3c-17.2 41.6-34.9 86.3-41.6 109.5-6.2-23.2-17.7-54.2-41.6-111.6L1212.9 9.5c-3.1-7.4-16.1-9.5-44.2-9.5h-29.1c-28.6 0-34.3 2.6-34.3 8.4v377.9c0 6.9 5.7 8.4 35.4 8.4h16.1c29.1 0 37.4-1.6 37.4-8.4V162.1h2.1s2.6 10.5 6.8 20l59.3 140.5c2.6 6.3 5.7 9 33.3 9h17.7c28.1 0 30.2-2.1 32.8-9l54.1-135.3c5.2-12.6 8.9-25.3 8.9-25.3h2.1v224.2c0 6.9 5.7 8.4 36.4 8.4h15.6c28.6 0 36.9-1.6 36.9-8.4V8.4c-.2-5.7-8.5-8.4-37.1-8.4zm-443.7 8.4c0-5.8-8-8.4-35.6-8.4h-16.1c-29.1 0-34.1 2.6-34.1 8.4v377.9c0 6.9 5 8.4 34.1 8.4h16.1c27.6 0 35.6-1.6 35.6-8.4V8.4zM872.5 0c8 0 9.6 1.1 9.6 29v25.8c0 26.8-2.1 30-9.6 30h-90.7v301.6c0 6.9-8.5 8.4-38.9 8.4h-16c-30.9 0-36.3-1.6-36.3-8.4V84.8h-90.7c-7.5 0-9.6-2.1-9.6-30V29c0-29 1.6-29 9.6-29h272.6z" style="fill-rule:evenodd;clip-rule:evenodd;fill:#004691"/></svg>