<svg width="760" height="410" viewBox="0 0 760 410" fill="none" xmlns="http://www.w3.org/2000/svg">
<path fill-rule="evenodd" clip-rule="evenodd" d="M234.25 311.75C234.25 311.612 234.138 311.5 234 311.5C233.862 311.5 233.75 311.612 233.75 311.75V312.75C233.75 312.888 233.862 313 234 313C234.138 313 234.25 312.888 234.25 312.75V311.75ZM234.25 317.85C234.25 317.712 234.138 317.6 234 317.6C233.862 317.6 233.75 317.712 233.75 317.85V318.85C233.75 318.988 233.862 319.1 234 319.1C234.138 319.1 234.25 318.988 234.25 318.85V317.85ZM236.55 315.3C236.412 315.3 236.3 315.188 236.3 315.05C236.3 314.912 236.412 314.8 236.55 314.8H237.55C237.688 314.8 237.8 314.912 237.8 315.05C237.8 315.188 237.688 315.3 237.55 315.3H236.55ZM231.45 315.3C231.588 315.3 231.7 315.188 231.7 315.05C231.7 314.912 231.588 314.8 231.45 314.8H230.45C230.312 314.8 230.2 314.912 230.2 315.05C230.2 315.188 230.312 315.3 230.45 315.3H231.45ZM236.687 312.967C236.785 312.869 236.785 312.711 236.687 312.613C236.59 312.515 236.431 312.515 236.334 312.613L235.627 313.32C235.529 313.418 235.529 313.576 235.627 313.674C235.724 313.771 235.882 313.771 235.98 313.674L236.687 312.967ZM232.374 317.28C232.471 317.182 232.471 317.024 232.374 316.926C232.276 316.829 232.118 316.829 232.02 316.926L231.313 317.633C231.216 317.731 231.216 317.889 231.313 317.987C231.411 318.085 231.569 318.085 231.667 317.987L232.374 317.28ZM235.803 317.103C235.706 317.006 235.706 316.847 235.803 316.75C235.901 316.652 236.059 316.652 236.157 316.75L236.864 317.457C236.962 317.554 236.962 317.713 236.864 317.81C236.766 317.908 236.608 317.908 236.51 317.81L235.803 317.103ZM232.197 313.497C232.295 313.595 232.453 313.595 232.551 313.497C232.648 313.399 232.648 313.241 232.551 313.143L231.844 312.436C231.746 312.339 231.588 312.339 231.49 312.436C231.392 312.534 231.392 312.692 231.49 312.79L232.197 313.497ZM234.943 315.3C234.943 315.821 234.521 316.243 234 316.243C233.479 316.243 233.057 315.821 233.057 315.3C233.057 314.779 233.479 314.357 234 314.357C234.521 314.357 234.943 314.779 234.943 315.3ZM235.414 315.3C235.414 316.081 234.781 316.714 234 316.714C233.219 316.714 232.586 316.081 232.586 315.3C232.586 314.519 233.219 313.886 234 313.886C234.781 313.886 235.414 314.519 235.414 315.3ZM199.6 312.943C199.861 312.943 200.072 312.732 200.072 312.471C200.072 312.211 199.861 312 199.6 312C199.34 312 199.129 312.211 199.129 312.471C199.129 312.732 199.34 312.943 199.6 312.943ZM200.544 315.3C200.544 315.821 200.122 316.243 199.601 316.243C199.08 316.243 198.658 315.821 198.658 315.3C198.658 314.779 199.08 314.357 199.601 314.357C200.122 314.357 200.544 314.779 200.544 315.3ZM201.015 315.3C201.015 316.081 200.382 316.714 199.601 316.714C198.82 316.714 198.187 316.081 198.187 315.3C198.187 314.519 198.82 313.886 199.601 313.886C200.382 313.886 201.015 314.519 201.015 315.3ZM200.072 318.129C200.072 318.389 199.861 318.6 199.6 318.6C199.34 318.6 199.129 318.389 199.129 318.129C199.129 317.868 199.34 317.657 199.6 317.657C199.861 317.657 200.072 317.868 200.072 318.129ZM201.958 315.3C201.958 315.56 202.169 315.771 202.429 315.771C202.689 315.771 202.9 315.56 202.9 315.3C202.9 315.04 202.689 314.829 202.429 314.829C202.169 314.829 201.958 315.04 201.958 315.3ZM196.772 315.771C196.511 315.771 196.3 315.56 196.3 315.3C196.3 315.04 196.511 314.829 196.772 314.829C197.032 314.829 197.243 315.04 197.243 315.3C197.243 315.56 197.032 315.771 196.772 315.771ZM201.268 316.967C201.083 317.151 201.083 317.449 201.268 317.633C201.452 317.818 201.75 317.818 201.934 317.633C202.118 317.449 202.118 317.151 201.934 316.967C201.75 316.783 201.452 316.783 201.268 316.967ZM197.268 313.633C197.083 313.449 197.083 313.151 197.268 312.966C197.452 312.782 197.75 312.782 197.934 312.966C198.118 313.151 198.118 313.449 197.934 313.633C197.75 313.817 197.452 313.817 197.268 313.633ZM197.934 316.967C197.75 316.783 197.451 316.783 197.267 316.967C197.083 317.151 197.083 317.449 197.267 317.633C197.451 317.818 197.75 317.818 197.934 317.633C198.118 317.449 198.118 317.151 197.934 316.967ZM201.268 312.967C201.452 312.782 201.751 312.782 201.935 312.967C202.119 313.151 202.119 313.449 201.935 313.633C201.751 313.817 201.452 313.817 201.268 313.633C201.084 313.449 201.084 313.151 201.268 312.967ZM509.982 312.765C510.265 312.481 510.75 312.682 510.75 313.083V317.117C510.75 317.518 510.265 317.719 509.982 317.435L508.896 316.35H507.8C507.496 316.35 507.25 316.104 507.25 315.8V314.4C507.25 314.096 507.496 313.85 507.8 313.85H508.896L509.982 312.765ZM510.25 313.203L509.177 314.277C509.13 314.324 509.066 314.35 509 314.35H507.8C507.772 314.35 507.75 314.372 507.75 314.4V315.8C507.75 315.828 507.772 315.85 507.8 315.85H509C509.066 315.85 509.13 315.876 509.177 315.923L510.25 316.996V313.203ZM140.896 327.827C140.782 328.341 140.357 328.754 139.633 328.754C138.782 328.754 138.271 328.151 138.271 327.211V326.834C138.271 325.939 138.757 325.326 139.608 325.326C140.449 325.326 140.944 325.936 140.944 326.869V327.145H138.713V327.224C138.713 327.919 139.059 328.376 139.646 328.376C140.09 328.376 140.354 328.141 140.452 327.827H140.896ZM138.713 326.754V326.764H140.503V326.754C140.503 326.151 140.147 325.707 139.608 325.707C139.062 325.707 138.713 326.151 138.713 326.754ZM142.892 327.211C142.266 327.072 141.775 326.891 141.775 326.304C141.775 325.637 142.33 325.326 142.962 325.326C143.749 325.326 144.114 325.796 144.114 326.294H143.698C143.685 326.037 143.511 325.704 142.946 325.704C142.524 325.704 142.206 325.888 142.206 326.259C142.206 326.646 142.616 326.739 143.038 326.827C143.65 326.948 144.193 327.097 144.193 327.751C144.193 328.405 143.653 328.754 142.914 328.754C142.171 328.754 141.702 328.373 141.702 327.824H142.133C142.171 328.125 142.435 328.379 142.946 328.379C143.476 328.379 143.758 328.132 143.758 327.799C143.758 327.402 143.4 327.319 142.892 327.211ZM144.966 327.215C144.966 328.103 145.458 328.754 146.315 328.754C147.087 328.754 147.474 328.332 147.575 327.811H147.141C147.077 328.097 146.82 328.354 146.35 328.354C145.773 328.354 145.404 327.913 145.404 327.211V326.869C145.404 326.148 145.757 325.726 146.341 325.726C146.76 325.726 147.045 326.015 147.118 326.326H147.556C147.525 325.84 147.077 325.326 146.312 325.326C145.477 325.326 144.966 325.939 144.966 326.84V327.215ZM198.086 329V327.562H199.5V327.181H198.086V326.048H199.627V325.667H197.659V329H198.086ZM201.26 329V325.667H200.865C200.623 325.797 200.281 326 200.044 326.17V326.605C200.264 326.454 200.665 326.207 200.831 326.119H200.838V329H201.26ZM234.603 326.573V326.588H234.188V326.573C234.188 326.061 234.563 325.597 235.24 325.597C235.862 325.597 236.27 325.985 236.27 326.51C236.27 326.905 236.038 327.175 235.723 327.542L235.704 327.564L234.805 328.619V328.626H236.333V329H234.209V328.731L235.455 327.289C235.643 327.074 235.838 326.842 235.838 326.539C235.838 326.185 235.577 325.965 235.228 325.965C234.834 325.965 234.603 326.249 234.603 326.573ZM232.217 327.562V329H231.79V325.667H233.758V326.048H232.217V327.181H233.631V327.562H232.217ZM269.374 327.467H269.713C270.177 327.467 270.45 327.708 270.455 328.072C270.46 328.438 270.191 328.705 269.715 328.705C269.269 328.705 269.056 328.451 269.012 328.138H268.612C268.631 328.648 268.985 329.073 269.701 329.073C270.394 329.073 270.899 328.646 270.887 328.075C270.875 327.533 270.443 327.291 270.16 327.267V327.259C270.418 327.218 270.777 326.92 270.765 326.446C270.75 325.968 270.34 325.597 269.715 325.597C269.042 325.597 268.705 326.063 268.695 326.5H269.103C269.125 326.251 269.295 325.963 269.715 325.963C270.091 325.963 270.331 326.19 270.333 326.517C270.335 326.856 270.072 327.096 269.693 327.096H269.374V327.467ZM266.693 329V327.562H268.106V327.181H266.693V326.048H268.233V325.667H266.266V329H266.693ZM300.683 327.562V329H300.256V325.667H302.224V326.048H300.683V327.181H302.097V327.562H300.683ZM302.526 327.943C302.944 327.188 303.439 326.405 303.938 325.667H304.553V327.933H304.987V328.309H304.553V329H304.145V328.309H302.526V327.943ZM302.954 327.928V327.933H304.145V326.039H304.138C303.735 326.627 303.305 327.313 302.954 327.928ZM337.341 328.163C337.375 328.646 337.751 329.071 338.44 329.071C339.119 329.071 339.639 328.6 339.639 327.914C339.639 327.245 339.136 326.795 338.538 326.795C338.181 326.795 337.903 326.966 337.82 327.081H337.812L337.922 326.036H339.39V325.663H337.563L337.38 327.601H337.742C337.839 327.384 338.062 327.157 338.474 327.157C338.877 327.157 339.209 327.45 339.209 327.926C339.209 328.434 338.809 328.702 338.467 328.702C338.083 328.702 337.805 328.514 337.751 328.163H337.341ZM335.32 329V327.562H336.733V327.181H335.32V326.048H336.86V325.667H334.893V329H335.32ZM373.045 325.604C373.661 325.604 374.02 326.039 374.054 326.441H373.626C373.609 326.251 373.417 325.97 373.028 325.97C372.601 325.97 372.237 326.368 372.21 327.325H372.218C372.315 327.079 372.625 326.832 373.053 326.832C373.597 326.832 374.144 327.22 374.144 327.926C374.144 328.646 373.634 329.068 372.997 329.068C372.64 329.068 372.34 328.939 372.127 328.675C371.917 328.412 371.795 328.009 371.795 327.462C371.795 326.207 372.323 325.604 373.045 325.604ZM372.999 327.198C372.613 327.198 372.271 327.462 372.271 327.953C372.271 328.446 372.623 328.7 373.004 328.7C373.37 328.7 373.724 328.465 373.724 327.95C373.724 327.44 373.36 327.198 372.999 327.198ZM369.886 327.562V329H369.459V325.667H371.427V326.048H369.886V327.181H371.3V327.562H369.886ZM404.254 329V327.562H405.668V327.181H404.254V326.048H405.795V325.667H403.827V329H404.254ZM406.176 325.667V326.041H407.882V326.048L406.479 329H406.925L408.29 326.058V325.667H406.176ZM442.931 328.089C442.931 328.668 442.431 329.071 441.747 329.071C441.063 329.071 440.58 328.673 440.58 328.092C440.58 327.567 440.976 327.313 441.254 327.245V327.24C441.022 327.164 440.712 326.925 440.712 326.488C440.712 325.97 441.154 325.597 441.757 325.597C442.362 325.597 442.804 325.97 442.804 326.488C442.804 326.935 442.477 327.169 442.26 327.24V327.245C442.541 327.313 442.931 327.572 442.931 328.089ZM441.125 326.517C441.125 326.852 441.393 327.086 441.757 327.086C442.125 327.086 442.389 326.852 442.389 326.517C442.389 326.183 442.125 325.958 441.757 325.958C441.393 325.958 441.125 326.183 441.125 326.517ZM440.998 328.077C440.998 328.453 441.325 328.714 441.757 328.714C442.191 328.714 442.516 328.453 442.516 328.077C442.516 327.696 442.191 327.435 441.757 327.435C441.325 327.435 440.998 327.696 440.998 328.077ZM438.634 327.562V329H438.207V325.667H440.175V326.048H438.634V327.181H440.048V327.562H438.634ZM474.935 328.185C474.964 328.585 475.306 329.063 476 329.063C476.786 329.063 477.25 328.397 477.25 327.269C477.25 326.061 476.761 325.602 476.029 325.602C475.45 325.602 474.906 326.021 474.906 326.732C474.906 327.457 475.421 327.838 475.953 327.838C476.419 327.838 476.722 327.604 476.817 327.345H476.834C476.832 328.167 476.546 328.697 476.019 328.697C475.604 328.697 475.389 328.417 475.362 328.185H474.935ZM476.781 326.737C476.781 327.171 476.432 327.474 476.041 327.474C475.665 327.474 475.326 327.235 475.326 326.725C475.326 326.209 475.689 325.968 476.056 325.968C476.451 325.968 476.781 326.217 476.781 326.737ZM472.987 329V327.562H474.4V327.181H472.987V326.048H474.527V325.667H472.56V329H472.987ZM511.441 329.071C510.682 329.071 510.267 328.446 510.267 327.467V327.208C510.267 326.227 510.685 325.597 511.444 325.597C512.203 325.597 512.613 326.224 512.613 327.208V327.467C512.613 328.441 512.206 329.071 511.441 329.071ZM511.441 325.97C510.975 325.97 510.689 326.422 510.689 327.21V327.462C510.689 328.25 510.975 328.697 511.441 328.697C511.905 328.697 512.191 328.25 512.191 327.462V327.21C512.191 326.422 511.905 325.97 511.441 325.97ZM506.375 329V327.562H507.789V327.181H506.375V326.048H507.916V325.667H505.948V329H506.375ZM509.549 329V325.667H509.154C508.912 325.797 508.57 326 508.333 326.17V326.605C508.553 326.454 508.954 326.207 509.12 326.119H509.127V329H509.549ZM541.102 327.562V329H540.675V325.667H542.643V326.048H541.102V327.181H542.516V327.562H541.102ZM544.276 325.667V329H543.854V326.119H543.846C543.68 326.207 543.28 326.454 543.06 326.605V326.17C543.297 326 543.639 325.797 543.88 325.667H544.276ZM546.244 329V325.667H545.848C545.606 325.797 545.265 326 545.028 326.17V326.605C545.248 326.454 545.648 326.207 545.814 326.119H545.821V329H546.244ZM579.587 326.573V326.588H579.172V326.573C579.172 326.061 579.548 325.597 580.224 325.597C580.847 325.597 581.254 325.985 581.254 326.51C581.254 326.905 581.022 327.175 580.707 327.542L580.688 327.564L579.79 328.619V328.626H581.318V329H579.194V328.731L580.439 327.289C580.627 327.074 580.822 326.842 580.822 326.539C580.822 326.185 580.561 325.965 580.212 325.965C579.819 325.965 579.587 326.249 579.587 326.573ZM575.234 329V327.562H576.647V327.181H575.234V326.048H576.774V325.667H574.807V329H575.234ZM578.408 329V325.667H578.012C577.771 325.797 577.429 326 577.192 326.17V326.605C577.412 326.454 577.812 326.207 577.978 326.119H577.985V329H578.408ZM264.6 313H267.6C267.655 313 267.7 313.045 267.7 313.1V314.4C267.7 314.455 267.655 314.5 267.6 314.5H264.6C264.545 314.5 264.5 314.455 264.5 314.4V313.1C264.5 313.045 264.545 313 264.6 313ZM264 313.1C264 312.769 264.269 312.5 264.6 312.5H267.6C267.931 312.5 268.2 312.769 268.2 313.1V314.4C268.2 314.731 267.931 315 267.6 315H264.6C264.269 315 264 314.731 264 314.4V313.1ZM272 313.3V316.9C272 316.955 271.955 317 271.9 317H269.6C269.545 317 269.5 316.955 269.5 316.9V313.3C269.5 313.245 269.545 313.2 269.6 313.2L271.9 313.2C271.955 313.2 272 313.245 272 313.3ZM271.9 312.7C272.231 312.7 272.5 312.969 272.5 313.3V316.9C272.5 317.231 272.231 317.5 271.9 317.5H269.6C269.269 317.5 269 317.231 269 316.9V313.3C269 312.969 269.269 312.7 269.6 312.7L271.9 312.7ZM267.9 316.2H265.6C265.545 316.2 265.5 316.245 265.5 316.3V317.3C265.5 317.355 265.545 317.4 265.6 317.4H267.9C267.955 317.4 268 317.355 268 317.3V316.3C268 316.245 267.955 316.2 267.9 316.2ZM265.6 315.7C265.269 315.7 265 315.969 265 316.3V317.3C265 317.631 265.269 317.9 265.6 317.9H267.9C268.231 317.9 268.5 317.631 268.5 317.3V316.3C268.5 315.969 268.231 315.7 267.9 315.7H265.6ZM303.705 316.123L303.714 316.114L303.722 316.106C304.495 315.324 304.492 314.064 303.714 313.286C302.933 312.505 301.667 312.505 300.886 313.286C300.105 314.067 300.105 315.333 300.886 316.114C301.664 316.892 302.924 316.895 303.705 316.123ZM303.882 316.636C302.9 317.44 301.449 317.384 300.532 316.468C299.556 315.491 299.556 313.908 300.532 312.932C301.508 311.956 303.091 311.956 304.068 312.932C304.984 313.849 305.04 315.301 304.235 316.283L305.835 317.882C305.932 317.98 305.932 318.138 305.835 318.236C305.737 318.333 305.579 318.333 305.481 318.236L303.882 316.636ZM337.901 314.9V312.9C337.901 312.513 337.588 312.2 337.201 312.2C336.814 312.2 336.501 312.513 336.501 312.9V314.9C336.501 315.287 336.814 315.6 337.201 315.6C337.588 315.6 337.901 315.287 337.901 314.9ZM337.201 311.7C336.538 311.7 336.001 312.237 336.001 312.9V314.9C336.001 315.563 336.538 316.1 337.201 316.1C337.864 316.1 338.401 315.563 338.401 314.9V312.9C338.401 312.237 337.864 311.7 337.201 311.7ZM335.101 314.35C334.935 314.35 334.801 314.484 334.801 314.65V314.95C334.801 316.174 335.717 317.183 336.9 317.331V318.2H335.401V318.7L339.001 318.7V318.2H337.4V317.342C338.632 317.24 339.601 316.208 339.601 314.95V314.65C339.601 314.484 339.466 314.35 339.301 314.35C339.135 314.35 339.001 314.484 339.001 314.65V314.95C339.001 315.944 338.195 316.75 337.201 316.75C336.207 316.75 335.401 315.944 335.401 314.95V314.65C335.401 314.484 335.266 314.35 335.101 314.35ZM374.479 316.526C374.362 316.532 374.244 316.533 374.124 316.528C372.074 316.445 370.471 314.742 370.502 312.702C369.921 313.186 369.54 313.905 369.507 314.72C369.445 316.251 370.637 317.543 372.168 317.605C373.103 317.643 373.948 317.214 374.479 316.526ZM374.804 315.989C374.59 316.024 374.369 316.038 374.144 316.029C372.337 315.956 370.931 314.431 371.004 312.624C371.008 312.533 371.015 312.444 371.026 312.356C371.056 312.107 370.817 311.89 370.602 312.019L370.57 312.039C369.67 312.591 369.054 313.566 369.008 314.7C368.935 316.507 370.341 318.032 372.148 318.105C373.422 318.156 374.555 317.473 375.139 316.433L375.157 316.4C375.278 316.179 375.052 315.949 374.804 315.989ZM405.2 313.468L402.2 315.2L405.2 316.932V313.468ZM401.95 314.767C401.617 314.96 401.617 315.441 401.95 315.633L404.95 317.365C405.284 317.558 405.7 317.317 405.7 316.932V315.601C405.716 315.612 405.732 315.623 405.75 315.633L408.75 317.365C409.083 317.558 409.5 317.317 409.5 316.932V313.468C409.5 313.083 409.083 312.843 408.75 313.035L405.75 314.767C405.732 314.777 405.716 314.788 405.7 314.8V313.468C405.7 313.083 405.284 312.843 404.95 313.035L401.95 314.767ZM409 313.468L406 315.2L409 316.932V313.468ZM478.301 315.2L475.301 313.468V316.932L478.301 315.2ZM478.551 315.633C478.884 315.441 478.884 314.96 478.551 314.767L475.551 313.035C475.217 312.843 474.801 313.083 474.801 313.468V314.8C474.785 314.788 474.768 314.777 474.751 314.767L471.751 313.035C471.418 312.843 471.001 313.083 471.001 313.468V316.932C471.001 317.317 471.418 317.558 471.751 317.365L474.751 315.633C474.768 315.623 474.785 315.612 474.801 315.601V316.932C474.801 317.317 475.217 317.558 475.551 317.365L478.551 315.633ZM474.501 315.2L471.501 313.468V316.932L474.501 315.2ZM543.482 312.765C543.765 312.481 544.25 312.682 544.25 313.083V317.117C544.25 317.518 543.765 317.719 543.482 317.435L542.396 316.35H541.3C540.996 316.35 540.75 316.104 540.75 315.8V314.4C540.75 314.096 540.996 313.85 541.3 313.85H542.396L543.482 312.765ZM543.75 313.203L542.677 314.277C542.63 314.324 542.566 314.35 542.5 314.35H541.3C541.272 314.35 541.25 314.372 541.25 314.4V315.8C541.25 315.828 541.272 315.85 541.3 315.85H542.5C542.566 315.85 542.63 315.876 542.677 315.923L543.75 316.996V313.203ZM545.554 314.398C545.896 314.805 545.896 315.386 545.554 315.793C545.481 315.886 545.498 316.019 545.593 316.092C545.688 316.164 545.827 316.152 545.906 316.063C546.382 315.496 546.382 314.687 545.906 314.119C545.856 314.056 545.775 314.024 545.694 314.035C545.612 314.046 545.544 314.099 545.515 314.172C545.486 314.246 545.501 314.329 545.554 314.389V314.398ZM577.5 313.083C577.5 312.682 577.015 312.481 576.732 312.765L575.646 313.85H574.55C574.246 313.85 574 314.096 574 314.4V315.8C574 316.104 574.246 316.35 574.55 316.35H575.646L576.732 317.435C577.015 317.719 577.5 317.518 577.5 317.117V313.083ZM575.927 314.277L577 313.203V316.996L575.927 315.923C575.88 315.876 575.816 315.85 575.75 315.85H574.55C574.522 315.85 574.5 315.828 574.5 315.8V314.4C574.5 314.372 574.522 314.35 574.55 314.35H575.75C575.816 314.35 575.88 314.324 575.927 314.277ZM579.68 316.465C579.649 316.503 579.631 316.55 579.631 316.599C579.63 316.691 579.691 316.773 579.781 316.804C579.871 316.834 579.972 316.807 580.032 316.735C580.833 315.777 580.833 314.414 580.032 313.456C579.982 313.393 579.901 313.361 579.82 313.372C579.739 313.383 579.67 313.436 579.641 313.509C579.612 313.583 579.627 313.666 579.68 313.726C580.35 314.526 580.35 315.665 579.68 316.465ZM580.586 317.437C580.633 317.473 580.693 317.49 580.752 317.483C580.812 317.477 580.866 317.448 580.903 317.403C582.032 316.054 582.032 314.135 580.903 312.786C580.854 312.723 580.773 312.691 580.692 312.702C580.61 312.713 580.542 312.766 580.513 312.84C580.484 312.913 580.499 312.996 580.552 313.056C581.549 314.247 581.549 315.942 580.552 317.133C580.514 317.178 580.497 317.235 580.504 317.292C580.511 317.349 580.541 317.402 580.588 317.437H580.586ZM578.804 315.793C579.146 315.386 579.146 314.805 578.804 314.398V314.389C578.751 314.329 578.736 314.246 578.765 314.172C578.794 314.099 578.862 314.046 578.944 314.035C579.025 314.024 579.106 314.056 579.156 314.119C579.632 314.687 579.632 315.496 579.156 316.063C579.077 316.152 578.938 316.164 578.843 316.092C578.748 316.019 578.731 315.886 578.804 315.793ZM440.4 315.2L437.4 313.468V316.932L440.4 315.2ZM440.65 315.633C440.984 315.441 440.984 314.96 440.65 314.767L437.65 313.035C437.317 312.843 436.9 313.083 436.9 313.468V316.932C436.9 317.317 437.317 317.558 437.65 317.365L440.65 315.633ZM441.5 313V317.5H442V313H441.5ZM443.4 317.5V313H443.9V317.5H443.4ZM148.737 356.045L147.659 354.445H146.634L147.964 356.045H148.737ZM182.894 354.84V361.5H182.22V355.582H182.21C181.922 355.738 180.989 356.319 180.613 356.578V355.865C181.023 355.572 181.849 355.064 182.269 354.84H182.894ZM182.096 343.972L182.166 347.749H182.639L182.705 343.972H182.096ZM182.006 348.976C182.006 349.194 182.182 349.37 182.4 349.37C182.619 349.37 182.795 349.194 182.795 348.976C182.795 348.757 182.619 348.581 182.4 348.581C182.182 348.581 182.006 348.757 182.006 348.976ZM219.346 346.304C219.346 347.251 218.844 347.811 218.208 347.811C217.729 347.811 217.48 347.565 217.442 347.329H217.412C217.364 347.514 217.101 347.811 216.663 347.811C216.113 347.811 215.781 347.381 215.781 346.707V346.403C215.781 345.764 216.103 345.313 216.69 345.313C217.107 345.313 217.316 345.583 217.371 345.757H217.395V345.361H217.798V347.011C217.798 347.329 218.017 347.463 218.263 347.463C218.622 347.463 218.95 347.104 218.95 346.27V346.143C218.95 345.121 218.218 344.205 216.896 344.205H216.868C215.641 344.205 214.708 345.067 214.708 346.478V346.632C214.708 348.095 215.682 348.833 216.858 348.833H216.885C217.398 348.833 217.736 348.765 217.989 348.662V349.031C217.794 349.117 217.432 349.192 216.885 349.192H216.858C215.443 349.192 214.301 348.338 214.301 346.653V346.458C214.301 344.855 215.395 343.843 216.868 343.843H216.896C218.481 343.843 219.346 344.954 219.346 346.13V346.304ZM216.202 346.42V346.656C216.202 347.217 216.458 347.442 216.796 347.442C217.125 347.442 217.391 347.23 217.391 346.697V346.389C217.391 345.942 217.148 345.658 216.79 345.658C216.455 345.658 216.202 345.907 216.202 346.42ZM253.08 345.843L253.159 345.471H252.355L252.625 344.134H252.239L251.969 345.471H250.793L251.067 344.134H250.674L250.407 345.471H249.645L249.57 345.843H250.325L250.079 347.057H249.32L249.242 347.436H249.997L249.72 348.8H250.11L250.39 347.436H251.562L251.286 348.8H251.672L251.949 347.436H252.752L252.827 347.057H252.027L252.277 345.843H253.08ZM250.715 345.843H251.887L251.641 347.057H250.465L250.715 345.843ZM285.363 348.6C284.522 348.542 284.006 348.036 283.955 347.397H284.427C284.495 347.786 284.82 348.104 285.363 348.169V346.406L285.124 346.341C284.464 346.163 284.088 345.77 284.088 345.185C284.088 344.519 284.601 344.02 285.363 343.938V343.446H285.732V343.928C286.515 343.975 287.035 344.437 287.093 345.062H286.618C286.549 344.68 286.242 344.396 285.732 344.351V346.023L285.979 346.088C286.778 346.31 287.154 346.659 287.154 347.298C287.154 348.036 286.597 348.528 285.732 348.597V349.082H285.363V348.6ZM284.56 345.168C284.56 345.537 284.799 345.766 285.25 345.89L285.363 345.92V344.362C284.871 344.43 284.56 344.741 284.56 345.168ZM286.683 347.328C286.683 346.911 286.423 346.689 285.869 346.542L285.732 346.505V348.176C286.317 348.132 286.683 347.807 286.683 347.328ZM317.679 344.967C317.679 345.606 317.979 346.036 318.516 346.036C319.08 346.036 319.367 345.575 319.367 344.967V344.82C319.367 344.177 319.07 343.75 318.53 343.75C317.99 343.75 317.679 344.177 317.679 344.82V344.967ZM318.39 348.6L320.16 346.269L321.931 343.938H321.449L319.682 346.269L317.908 348.6H318.39ZM318.144 344.823C318.144 344.358 318.294 344.126 318.523 344.126C318.752 344.126 318.902 344.358 318.902 344.823V344.963C318.902 345.425 318.752 345.661 318.523 345.661C318.294 345.661 318.144 345.425 318.144 344.963V344.823ZM320.434 347.571C320.434 348.21 320.731 348.641 321.271 348.641C321.835 348.641 322.122 348.183 322.122 347.571V347.424C322.122 346.782 321.825 346.358 321.285 346.358C320.745 346.358 320.434 346.785 320.434 347.424V347.571ZM320.898 347.428C320.898 346.966 321.049 346.73 321.278 346.73C321.507 346.73 321.657 346.966 321.657 347.428V347.568C321.657 348.033 321.507 348.268 321.278 348.268C321.049 348.268 320.898 348.033 320.898 347.568V347.428ZM391.108 348.8H390.49L390.028 348.301C389.56 348.742 388.979 348.889 388.521 348.889C387.687 348.889 386.99 348.41 386.99 347.587C386.99 347.016 387.328 346.616 387.916 346.301C387.935 346.292 387.965 346.277 387.996 346.261L387.996 346.261L387.997 346.26L387.998 346.26L387.999 346.26L387.999 346.26L387.999 346.259L388.025 346.246L388.05 346.233C388.062 346.227 388.073 346.221 388.084 346.216C388.093 346.212 388.101 346.209 388.107 346.206C387.776 345.86 387.506 345.536 387.506 345.109C387.506 344.538 387.984 344.097 388.651 344.097C389.314 344.097 389.792 344.534 389.792 345.122C389.792 345.676 389.365 346.001 388.774 346.308L390.001 347.638C390.165 347.344 390.247 346.879 390.254 346.308V346.158H390.705C390.705 346.175 390.705 346.295 390.702 346.312C390.698 346.999 390.575 347.566 390.315 347.959L391.108 348.8ZM387.971 345.136C387.971 345.409 388.118 345.638 388.507 346.031C389.023 345.772 389.331 345.536 389.331 345.132C389.331 344.75 389.047 344.486 388.651 344.486C388.254 344.486 387.971 344.756 387.971 345.136ZM388.377 346.5C388.333 346.52 388.227 346.571 388.189 346.595C387.752 346.831 387.468 347.115 387.468 347.559C387.468 348.161 387.984 348.479 388.555 348.479C388.941 348.479 389.43 348.335 389.741 347.993L388.377 346.5ZM457.984 343.688C457.358 344.437 457.023 345.391 457.023 346.618C457.023 347.838 457.399 348.942 457.957 349.639H458.363C457.806 348.692 457.492 347.752 457.492 346.611C457.492 345.432 457.888 344.259 458.374 343.688H457.984ZM492.201 346.611C492.201 345.432 491.808 344.259 491.322 343.688H491.712C492.334 344.437 492.669 345.391 492.669 346.618C492.669 347.838 492.296 348.942 491.739 349.639H491.329C491.89 348.692 492.201 347.752 492.201 346.611ZM561.073 347.227H563.095V346.665H561.073V344.561H560.517V346.665H558.5V347.227H560.517V349.444H561.073V347.227ZM529.5 350V350.5H523.5V350H529.5ZM423.42 346.961L423.372 345.845L424.325 346.443L424.545 346.052L423.556 345.542L424.545 345.01L424.325 344.619L423.372 345.247L423.42 344.1H422.98L423.024 345.252L422.071 344.619L421.851 345.015L422.835 345.542L421.851 346.052L422.071 346.443L423.024 345.845L422.98 346.961H423.42ZM149.97 346.436C149.97 347.104 149.61 347.794 148.814 347.794C148.292 347.794 147.98 347.492 147.702 347.223C147.477 347.006 147.274 346.809 147 346.809C146.63 346.809 146.397 347.165 146.384 347.627H145.826C145.826 346.924 146.217 346.269 146.995 346.269C147.52 346.269 147.829 346.57 148.105 346.839C148.327 347.057 148.529 347.253 148.806 347.253C149.192 347.253 149.39 346.875 149.412 346.436H149.97ZM215.094 356.622V356.598C215.094 355.919 215.587 355.299 216.456 355.299C217.247 355.299 217.779 355.807 217.779 356.534C217.779 357.192 217.37 357.67 216.995 358.109L216.993 358.111L214.459 361.051V361.5H218.614V360.89H215.411V360.88L217.384 358.575L217.463 358.482C218.015 357.83 218.482 357.278 218.482 356.5C218.482 355.484 217.706 354.698 216.471 354.698C215.133 354.698 214.425 355.621 214.425 356.598V356.622H215.094ZM250.997 358.37H250.328V357.76H250.953C251.793 357.76 252.354 357.223 252.35 356.5C252.345 355.802 251.837 355.299 251.007 355.299C250.079 355.299 249.718 355.953 249.684 356.466H249.024C249.034 355.665 249.654 354.698 251.007 354.698C252.237 354.698 253.023 355.44 253.048 356.388C253.067 357.345 252.34 357.95 251.788 358.028V358.038C252.408 358.092 253.292 358.595 253.312 359.674C253.331 360.807 252.359 361.646 251.007 361.646C249.601 361.646 248.893 360.792 248.858 359.806H249.508C249.586 360.465 250.06 361.046 251.031 361.046C252.037 361.046 252.623 360.47 252.618 359.683C252.608 358.888 251.988 358.37 250.997 358.37ZM286.066 354.84C285.241 356.046 283.845 358.219 283.161 359.444V360.04H286.398V361.5H287.053V360.04H287.956V359.43H287.053V354.84H286.066ZM283.864 359.43V359.415C284.45 358.404 285.72 356.422 286.389 355.455H286.398V359.43H283.864ZM319.971 361.646C318.589 361.646 317.881 360.758 317.822 359.859H318.491C318.579 360.548 319.136 361.041 320.02 361.041C320.786 361.041 321.606 360.431 321.606 359.376C321.606 358.375 320.913 357.725 320.029 357.725C319.175 357.725 318.691 358.214 318.491 358.643H317.91L318.301 354.835H321.812V355.44H318.882L318.618 357.755H318.628C318.789 357.52 319.36 357.135 320.112 357.135C321.323 357.135 322.305 358.043 322.305 359.361C322.305 360.694 321.294 361.646 319.971 361.646ZM356.658 356.368C356.58 355.572 355.867 354.708 354.695 354.708C353.274 354.708 352.234 355.885 352.234 358.477C352.234 359.561 352.479 360.352 352.894 360.87C353.309 361.392 353.899 361.641 354.588 361.641C355.838 361.641 356.834 360.787 356.834 359.381C356.834 357.974 355.735 357.188 354.661 357.188C353.758 357.188 353.104 357.716 352.908 358.243H352.898C352.952 356.148 353.729 355.308 354.661 355.308C355.501 355.308 355.921 355.943 355.965 356.368H356.658ZM353.016 359.391C353.016 358.35 353.768 357.799 354.603 357.799C355.374 357.799 356.155 358.341 356.155 359.43C356.155 360.494 355.418 361.041 354.603 361.041C353.768 361.041 353.016 360.44 353.016 359.391ZM386.391 355.45V354.84H390.517V355.479L387.748 361.5H387.03L389.857 355.465V355.45H386.391ZM423.48 361.646C424.809 361.646 425.79 360.846 425.79 359.693C425.79 358.643 424.979 358.116 424.423 357.989V357.974C424.853 357.848 425.541 357.379 425.541 356.466C425.541 355.435 424.677 354.698 423.5 354.698C422.328 354.698 421.464 355.435 421.464 356.466C421.464 357.364 422.123 357.838 422.577 357.974V357.989C422.021 358.116 421.205 358.639 421.205 359.698C421.205 360.855 422.157 361.646 423.48 361.646ZM423.5 357.721C422.714 357.721 422.128 357.223 422.128 356.505C422.128 355.782 422.709 355.299 423.5 355.299C424.296 355.299 424.872 355.782 424.872 356.505C424.872 357.223 424.296 357.721 423.5 357.721ZM423.5 361.051C422.572 361.051 421.869 360.489 421.869 359.674C421.869 358.868 422.562 358.302 423.5 358.302C424.438 358.302 425.126 358.868 425.126 359.674C425.126 360.489 424.433 361.051 423.5 361.051ZM457.368 361.632C456.03 361.632 455.366 360.689 455.308 359.893H456.001C456.055 360.396 456.494 361.031 457.407 361.031C458.511 361.031 459.131 359.996 459.141 358.092H459.116C458.911 358.643 458.315 359.161 457.339 359.161C456.27 359.161 455.244 358.39 455.244 356.944C455.244 355.562 456.289 354.703 457.437 354.703C458.853 354.703 459.805 355.601 459.805 358.014C459.805 360.362 458.906 361.632 457.368 361.632ZM457.466 358.556C458.296 358.556 459.038 357.901 459.038 356.988C459.038 355.899 458.359 355.304 457.48 355.304C456.675 355.304 455.923 355.87 455.923 356.934C455.923 358.018 456.646 358.556 457.466 358.556ZM489.725 358.429C489.725 360.426 490.55 361.646 492 361.646C493.455 361.646 494.275 360.426 494.275 358.429V357.921C494.275 355.924 493.455 354.698 492.005 354.698C490.55 354.698 489.725 355.924 489.725 357.921V358.429ZM490.398 357.921C490.398 356.251 491.023 355.304 492 355.304C492.981 355.304 493.602 356.251 493.602 357.921V358.429C493.602 360.099 492.981 361.036 492 361.036C491.023 361.036 490.398 360.099 490.398 358.429V357.921ZM528.038 358.463V359.063H524.962V358.463H528.038ZM562.497 358.243V357.686H558.493V358.243H562.497ZM562.497 359.986V359.439H558.493V359.986H562.497ZM604.597 360.356C604.597 359.452 605.111 358.826 605.917 358.826C606.409 358.826 606.749 359.096 606.901 359.382H606.914V357.639H607.352V362.2H606.936V361.667H606.923C606.761 361.978 606.425 362.251 605.917 362.251C605.07 362.251 604.597 361.632 604.597 360.724V360.356ZM606.923 360.378C606.923 359.693 606.552 359.22 605.952 359.22C605.438 359.22 605.035 359.598 605.035 360.381V360.705C605.035 361.47 605.428 361.86 605.961 361.86C606.564 361.86 606.923 361.413 606.923 360.708V360.378ZM611.027 361.327C610.913 361.841 610.488 362.254 609.764 362.254C608.914 362.254 608.403 361.651 608.403 360.712V360.334C608.403 359.439 608.888 358.826 609.739 358.826C610.58 358.826 611.075 359.436 611.075 360.369V360.645H608.844V360.724C608.844 361.419 609.19 361.876 609.777 361.876C610.221 361.876 610.485 361.641 610.583 361.327H611.027ZM608.844 360.255V360.264H610.634V360.255C610.634 359.651 610.278 359.207 609.739 359.207C609.193 359.207 608.844 359.651 608.844 360.255ZM612.129 362.2H612.567V357.639H612.129V362.2ZM616.259 361.327C616.145 361.841 615.72 362.254 614.996 362.254C614.145 362.254 613.634 361.651 613.634 360.712V360.334C613.634 359.439 614.12 358.826 614.971 358.826C615.812 358.826 616.307 359.436 616.307 360.369V360.645H614.076V360.724C614.076 361.419 614.422 361.876 615.009 361.876C615.453 361.876 615.716 361.641 615.815 361.327H616.259ZM614.076 360.255V360.264H615.866V360.255C615.866 359.651 615.51 359.207 614.971 359.207C614.425 359.207 614.076 359.651 614.076 360.255ZM617.526 358.883H617.06V359.258H617.526V361.315C617.526 361.946 617.675 362.232 618.415 362.232C618.529 362.232 618.64 362.219 618.691 362.206V361.848C618.64 361.854 618.586 361.857 618.523 361.857C618.101 361.857 617.961 361.753 617.961 361.346V359.258H618.662V358.883H617.961V358.055H617.526V358.883ZM622.094 361.327C621.98 361.841 621.554 362.254 620.831 362.254C619.98 362.254 619.469 361.651 619.469 360.712V360.334C619.469 359.439 619.955 358.826 620.805 358.826C621.646 358.826 622.142 359.436 622.142 360.369V360.645H619.91V360.724C619.91 361.419 620.256 361.876 620.844 361.876C621.288 361.876 621.551 361.641 621.65 361.327H622.094ZM619.91 360.255V360.264H621.7V360.255C621.7 359.651 621.345 359.207 620.805 359.207C620.26 359.207 619.91 359.651 619.91 360.255ZM354.5 344.1C354.561 344.1 354.618 344.128 354.656 344.175L356.656 346.675C356.725 346.761 356.711 346.887 356.625 346.956C356.538 347.025 356.413 347.011 356.344 346.925L354.5 344.62L352.656 346.925C352.587 347.011 352.461 347.025 352.375 346.956C352.289 346.887 352.275 346.761 352.344 346.675L354.344 344.175C354.382 344.128 354.439 344.1 354.5 344.1ZM146.751 394.234C146.751 395.186 146.208 395.754 145.434 395.754C144.913 395.754 144.596 395.494 144.415 395.167H144.402V395.7H143.986V391.139H144.424V392.878H144.437C144.586 392.612 144.954 392.326 145.44 392.326C146.208 392.326 146.751 392.878 146.751 393.843V394.234ZM144.415 394.196C144.415 394.932 144.789 395.364 145.405 395.364C145.925 395.364 146.313 394.957 146.313 394.202V393.878C146.313 393.129 145.932 392.72 145.405 392.72C144.783 392.72 144.415 393.158 144.415 393.875V394.196ZM138.298 392.383H137.831V392.758H138.298V394.814C138.298 395.446 138.447 395.732 139.186 395.732C139.301 395.732 139.412 395.719 139.462 395.706V395.348C139.412 395.354 139.358 395.357 139.294 395.357C138.872 395.357 138.732 395.252 138.732 394.846V392.758H139.434V392.383H138.732V391.555H138.298V392.383ZM142.321 395.256H142.334V395.7H142.759V393.383C142.759 392.707 142.267 392.326 141.575 392.326C140.813 392.326 140.423 392.726 140.382 393.294H140.798C140.842 392.939 141.093 392.707 141.559 392.707C142.039 392.707 142.321 392.958 142.321 393.437V393.812H141.404C140.648 393.815 140.252 394.183 140.252 394.754C140.252 395.36 140.693 395.754 141.334 395.754C141.861 395.754 142.172 395.513 142.321 395.256ZM141.436 395.376C141.045 395.376 140.706 395.164 140.706 394.741C140.706 394.408 140.918 394.17 141.42 394.17H142.321V394.592C142.321 395.056 141.937 395.376 141.436 395.376ZM196.888 386.783C196.888 388.643 197.898 389.732 199.495 389.732C199.944 389.732 200.354 389.644 200.696 389.478L201.36 390.381H202.146L201.229 389.117C201.79 388.619 202.107 387.823 202.107 386.783V385.748C202.107 383.892 201.092 382.798 199.495 382.798C197.898 382.798 196.888 383.892 196.888 385.748V386.783ZM197.562 385.748C197.562 384.224 198.377 383.418 199.495 383.418C200.613 383.418 201.429 384.224 201.429 385.748V386.783C201.429 387.579 201.204 388.179 200.828 388.565L200.184 387.691H199.378L200.301 388.946C200.062 389.053 199.798 389.112 199.495 389.112C198.372 389.112 197.562 388.306 197.562 386.783V385.748ZM233.785 384.107L232.286 389.6H231.661L229.835 382.94H230.597L231.983 388.414H232.003L233.434 382.94H234.161L235.587 388.414H235.611L236.998 382.94H237.76L235.929 389.6H235.309L233.81 384.107H233.785ZM270.585 388.975H267.357V386.504H270.409V385.884H267.357V383.565H270.585V382.94H266.674V389.6H270.585V388.975ZM300.415 382.94H302.734C304.15 382.94 304.819 383.843 304.819 384.883C304.819 385.962 304.18 386.514 303.535 386.724L304.937 389.6H304.15L302.852 386.866H301.099V389.6H300.415V382.94ZM301.099 383.56V386.246H302.617C303.594 386.246 304.116 385.762 304.116 384.927C304.116 384.039 303.545 383.56 302.646 383.56H301.099ZM337.332 389.6V383.56H339.412V382.94H334.583V383.56H336.658V389.6H337.332ZM371.837 386.666V389.6H371.163V386.666L368.917 382.94H369.703L371.49 385.992H371.515L373.302 382.94H374.083L371.837 386.666ZM404.203 382.94H403.529V387.374C403.529 388.765 404.447 389.747 406 389.747C407.553 389.747 408.471 388.765 408.471 387.374V382.94H407.797V387.291C407.797 388.404 407.108 389.122 406 389.122C404.892 389.122 404.203 388.399 404.203 387.291V382.94ZM440.837 382.94V389.6H440.158V382.94H440.837ZM472.287 386.822C472.287 388.677 473.298 389.747 474.895 389.747C476.486 389.747 477.517 388.677 477.517 386.822V385.777C477.517 383.917 476.506 382.798 474.909 382.798C473.317 382.798 472.287 383.917 472.287 385.772V386.822ZM472.966 385.767C472.966 384.244 473.786 383.418 474.899 383.418C476.022 383.418 476.833 384.244 476.833 385.767V386.832C476.833 388.35 476.022 389.122 474.899 389.122C473.781 389.122 472.966 388.35 472.966 386.832V385.767ZM507.156 389.6V382.94H509.48C510.745 382.94 511.57 383.741 511.57 384.971C511.57 386.202 510.745 386.993 509.48 386.993H507.84V389.6H507.156ZM509.456 383.565H507.84V386.372H509.021C510.193 386.372 510.872 386.079 510.872 384.971C510.872 384.082 510.354 383.565 509.456 383.565ZM578.537 380.197C578.005 380.246 577.736 380.598 577.736 381.271V382.893C577.736 383.605 577.419 383.938 576.628 383.938H576.403V384.484H576.638C577.722 384.484 578.361 384.06 578.361 382.902V381.521C578.361 380.837 578.522 380.529 579.191 380.529V379.763C578.522 379.763 578.361 379.45 578.361 378.771V377.526C578.361 376.374 577.722 375.983 576.638 375.983H576.403V376.53H576.628C577.429 376.53 577.736 376.862 577.736 377.57V379.016C577.736 379.699 578.005 380.036 578.537 380.09V380.197ZM612.793 375.983V384.484H612.202V375.983H612.793ZM543.058 380.09C543.595 380.036 543.858 379.699 543.858 379.016V377.57C543.858 376.857 544.166 376.53 544.962 376.53H545.191V375.983H544.952C543.868 375.983 543.233 376.374 543.233 377.521V378.771C543.233 379.45 543.072 379.763 542.403 379.763V380.529C543.072 380.529 543.233 380.837 543.233 381.521V382.902C543.233 384.06 543.868 384.484 544.952 384.484H545.191V383.938H544.962C544.171 383.938 543.858 383.605 543.858 382.893V381.271C543.858 380.598 543.595 380.246 543.058 380.197V380.09ZM577.104 388.43V387.883H579.11V396.384H577.104V395.837H578.471V388.43H577.104ZM613.078 396.384H613.713L611.311 387.883H610.681L613.078 396.384ZM542.88 396.384V387.883H544.892V388.43H543.524V395.837H544.892V396.384H542.88Z" fill="url(#paint0_linear_5558_89338)" fill-opacity="0.55"/>
<defs>
<linearGradient id="paint0_linear_5558_89338" x1="379.986" y1="311.5" x2="379.986" y2="396.384" gradientUnits="userSpaceOnUse">
<stop stop-color="white"/>
<stop offset="1" stop-color="white" stop-opacity="0.2"/>
</linearGradient>
</defs>
</svg>
